<svg xmlns="http://www.w3.org/2000/svg" width="105.963" height="91.377" viewBox="0 0 105.963 91.377">
  <g id="Group_33" data-name="Group 33" transform="translate(-0.592 -28.244)">
    <path id="Path_8" data-name="Path 8" d="M.592,83.52c11.9-.238,20.131-6.967,27.283-15.531,2.449-2.931,4.646-6.076,7.142-8.964,7.3-8.448,26.721-7.77,28.261,5.91.123,1.1.852,2.125,1.462,3.57,4.585-7.152,9.87-13.473,16.9-17.84,6.733-4.182,14-6.188,21.565-1.67,1.052.628,2.6.722,1.567,2.974-2.6,5.664-4.675,11.565-7.158,17.285-.435,1-.432,3.271-3.177,1.8C87.1,67.123,80.053,68.472,74,74.013c-9.024,8.261-14.05,18.906-18.41,29.993a37.668,37.668,0,0,0-2.065,5.325c-.654,2.918-2.562,3.132-4.787,2.49-2.376-.686-3.026-2.16-2.39-4.8,1.82-7.552,4.23-15.065,1.9-23.05-1.105-3.785-2.026-7.673-6.284-8.77-4.148-1.069-7.4,1.4-10.249,4.087-6.905,6.5-11.737,14.657-17.5,22.078C10.5,106.158,6.727,117.515.636,119.621c0-9.859-.044-26.241-.044-36.1" fill="#d3596a"/>
    <path id="Path_9" data-name="Path 9" d="M52.931,34.523c1.73-.574,4.8.312,6.569,1.508,5.534,3.734,9.168,1.04,13.434-2.14,9.666-7.206,19.851-7.365,30.241-1.337,2.15,1.247,4.3,2.943,2.969,5.294s-4.049,1.253-5.966.036c-12.02-7.628-21.413-3.13-28.949,5.946-2.131,2.567-4.189,2.085-6.758.633-7.663-4.328-15.385-5.5-23.364-.389-2.6,1.662-4.463,3.924-6.6,5.964-1.429,1.364-3.245,2.432-4.627,1.308-1.536-1.248-1.317-3.559.059-5.2a30.915,30.915,0,0,1,22.991-11.62" fill="#d2586a"/>
  </g>
</svg>
